<svg width="249" height="32" viewBox="0 0 249 32" fill="none" xmlns="http://www.w3.org/2000/svg">
<path d="M35.3932 15.5927C35.0351 15.5927 34.6822 15.5371 34.3451 15.4283L34.3028 15.4155C34.2652 15.4046 34.2252 15.3918 34.1805 15.3763C34.0804 15.3417 33.9716 15.2912 33.8493 15.2238L33.8093 15.2019C33.3631 14.9665 32.9661 14.6277 32.6606 14.2215C31.7278 12.9825 31.7304 11.2548 32.6679 10.0198C33.0487 9.5176 33.556 9.13005 34.135 8.89872L34.1922 8.87461C34.3668 8.79994 34.4937 8.7594 34.5932 8.74664L34.703 8.72842C34.9291 8.68196 35.1612 8.65828 35.3938 8.65828C36.7923 8.65828 37.9603 8.2216 38.7711 7.39602C39.5215 6.63193 39.9125 5.58003 39.9026 4.35373V0H31.3598V2.86972C31.3598 3.42845 31.3583 3.98718 31.3598 4.54594C31.3618 5.6757 30.7279 7.21799 29.5658 7.61055C28.8259 7.86054 27.908 7.48715 27.1221 7.57868C26.4763 7.65383 25.85 7.87693 25.3007 8.22803C24.1966 8.9334 23.4509 10.1333 23.3076 11.4461C23.2522 11.9525 23.2832 12.33 23.3062 12.6059C23.3315 12.9133 23.3391 13.0058 23.2328 13.3122C23.0237 13.9106 22.5767 14.4666 21.9746 14.8773C21.3726 15.288 20.6805 15.5139 20.0253 15.5139L19.9613 15.513L19.8973 15.5139C19.242 15.5139 18.5494 15.288 17.9479 14.8773C17.3459 14.467 16.8989 13.9106 16.6897 13.3122C16.5834 13.0057 16.5906 12.9129 16.6163 12.6059C16.6388 12.3305 16.6699 11.953 16.6149 11.4461C16.4716 10.1333 15.7259 8.93387 14.6218 8.22803C14.0725 7.87693 13.4462 7.65383 12.8005 7.57868C12.0146 7.48715 11.0967 7.86057 10.3567 7.61055C9.19456 7.21802 8.56054 5.6757 8.56282 4.54594C8.56416 3.98718 8.56282 3.42845 8.56282 2.86972V0H0.0185491V4.35376C0.00863839 5.58006 0.400212 6.63196 1.15004 7.39605C1.96071 8.22211 3.12874 8.65832 4.52745 8.65832C4.75999 8.65832 4.99202 8.68199 5.21826 8.72845L5.32778 8.74667C5.42735 8.75988 5.55442 8.80038 5.72883 8.87464L5.78601 8.89876C6.36509 9.13008 6.87248 9.51763 7.25323 10.0199C8.19053 11.2548 8.19324 12.9825 7.26043 14.2216C6.95491 14.6277 6.55748 14.9665 6.11183 15.202L6.07168 15.2238C5.94957 15.2912 5.84052 15.3413 5.74048 15.3764C5.69585 15.3919 5.65577 15.4046 5.61837 15.4155L5.57598 15.4283C5.23892 15.5376 4.88608 15.5927 4.52786 15.5927C1.81962 15.5927 0 17.2757 0 19.7807C0 21.736 0.882321 22.7506 1.62224 23.2574C2.52529 23.8758 3.61443 24.0511 4.65716 24.1477L4.72928 24.1559C5.00595 24.1923 5.23938 24.2497 5.50751 24.3471L5.63682 24.3967L5.65888 24.4049C6.36097 24.6472 6.94902 25.1422 7.31538 25.7988C7.52223 26.1699 7.6655 26.6558 7.7187 27.1663C7.73943 27.3671 7.75339 27.5615 7.76692 27.7537C7.77726 27.8999 7.78898 28.0638 7.80479 28.2286V32H16.2873V27.5592C16.2873 26.4181 15.8574 25.3111 15.0589 24.5042C15.03 24.4751 15.0012 24.4468 14.9714 24.4186C14.9079 24.3585 14.8493 24.3075 14.8024 24.2669L14.7736 24.2419C13.8543 23.4368 12.6589 23.4154 11.7855 23.3995H11.7761C11.6301 23.3967 11.4917 23.394 11.3696 23.3881L11.2385 23.3676L10.9578 23.3043L10.6933 23.2218L10.408 23.1071C10.1093 22.9701 9.83029 22.7915 9.58292 22.5788L9.52751 22.5306C8.7371 21.8166 8.34505 20.9363 8.32885 19.8403C8.33109 19.0571 8.57893 18.3148 9.0458 17.6932C9.50096 17.0876 10.1458 16.6368 10.8614 16.4237C11.586 16.2082 12.9374 16.2028 13.589 16.4132C14.7764 16.7962 15.619 17.8972 15.6853 19.1531C15.6907 19.257 15.6866 19.3658 15.6821 19.4933C15.6686 19.8617 15.6501 20.3662 15.8606 21.0042C16.4554 22.7783 18.1006 23.9755 19.9598 23.9837C21.8191 23.975 23.4643 22.7783 24.0592 21.0042C24.2696 20.3667 24.2511 19.8621 24.2376 19.4933C24.2331 19.3658 24.229 19.2565 24.2344 19.1531C24.3007 17.8972 25.1429 16.7962 26.3307 16.4132C26.9827 16.2028 28.3337 16.2083 29.0584 16.4237C29.7738 16.6368 30.4191 17.0881 30.8738 17.6932C31.3407 18.3148 31.5885 19.0571 31.5909 19.8403C31.5745 20.9363 31.1825 21.8161 30.3922 22.5306L30.3368 22.5788C30.0893 22.791 29.8106 22.97 29.5117 23.1071L29.2263 23.2218L28.9619 23.3043L28.6812 23.3676L28.5501 23.3881C28.4284 23.394 28.2896 23.3967 28.1436 23.3995H28.1341C27.2613 23.4154 26.0653 23.4368 25.1461 24.2419L25.1173 24.2669C25.0704 24.3075 25.0118 24.3585 24.9483 24.4186C24.9185 24.4468 24.8897 24.4755 24.8608 24.5042C24.0623 25.3111 23.6324 26.4181 23.6324 27.5592V32H32.1151V28.2286C32.1308 28.0642 32.1425 27.8998 32.1527 27.7537C32.1664 27.562 32.1801 27.3675 32.2009 27.1663C32.2543 26.6558 32.3976 26.1699 32.6042 25.7988C32.9702 25.1422 33.5586 24.6472 34.2608 24.4049L34.283 24.3967L34.4123 24.3471C34.6802 24.2501 34.9137 24.1927 35.1904 24.1559L35.2624 24.1477C36.3052 24.0511 37.3944 23.8758 38.2974 23.2574C39.0373 22.7506 39.9198 21.736 39.9198 19.7807C39.9198 17.2757 38.1001 15.5927 35.3918 15.5927L35.3932 15.5927Z" fill="#ffda34"/>
<path d="M92.4403 31.5009L92.4429 31.5033H87.174V8.37932C87.174 7.20307 85.5233 6.98734 85.2291 8.12348L79.1695 31.5033H69.1635L63.1015 8.12348C62.8073 6.98734 61.1566 7.20307 61.1566 8.37932V31.5033H55.8877V0H66.3018L73.2236 27.1569C73.4783 28.1601 74.8845 28.1601 75.1389 27.1569L82.0265 0H92.4402L92.4403 31.5009ZM116.375 20.3099C116.375 27.1894 112.087 32 105.266 32C98.4454 32 94.1976 27.232 94.1976 20.3099C94.1976 13.4304 98.4851 8.66264 105.266 8.66264C112.047 8.66264 116.375 13.4304 116.375 20.3099ZM111.148 20.3099C111.148 15.4193 109.065 12.3093 105.266 12.3093C101.468 12.3093 99.3845 15.4193 99.3845 20.3099C99.3845 25.2006 101.507 28.3506 105.266 28.3506C109.025 28.3506 111.148 25.2407 111.148 20.3099ZM133.159 9.16182V9.16432L127.651 27.7086C127.367 28.6567 126.042 28.6592 125.758 27.7086L120.212 9.16182H115.107L121.928 31.5033H131.484L138.305 9.16182H133.159ZM158.646 20.1845C158.646 20.6811 158.603 21.263 158.522 21.8423V21.8448H143.405C142.78 21.8448 142.318 22.4267 142.436 23.0512C143.109 26.5649 145.145 28.3531 147.943 28.3531C150.74 28.3531 152.191 27.069 152.967 24.9121H158.154C156.765 29.6801 153.048 32 147.903 32C141.164 32 137.079 27.1092 137.079 20.31C137.079 13.5107 141.285 8.66268 147.903 8.66268C154.521 8.66268 158.646 13.2222 158.646 20.1845ZM153.248 17.0194C152.65 14.1452 150.671 12.3118 147.9 12.3118C145.13 12.3118 143.304 13.8242 142.535 16.9943C142.382 17.6263 142.854 18.2383 143.497 18.2383H152.282C152.912 18.2383 153.379 17.6464 153.248 17.0194ZM185.602 8.66264C182.639 8.66264 180.702 10.2477 179.545 12.204C179.15 12.8686 178.213 12.8636 177.83 12.1914C176.696 10.1976 174.726 8.66264 171.837 8.66264C169.606 8.66264 167.992 9.53044 166.848 10.8045C166.242 11.4767 165.138 11.0303 165.138 10.1198V9.16178H160.074V31.5033H165.18V18.5293C165.18 14.2606 166.69 12.3545 169.549 12.3545C172.408 12.3545 173.878 14.2606 173.878 18.4465V31.5033H178.984V18.5293C178.984 14.2606 180.494 12.3545 183.353 12.3545C186.212 12.3545 187.683 14.2606 187.683 18.4465V31.5033H192.789V17.4508H192.791C192.791 12.352 190.503 8.66264 185.602 8.66264ZM215.618 20.1845C215.618 20.6811 215.576 21.263 215.495 21.8423V21.8448H200.378C199.753 21.8448 199.291 22.4267 199.409 23.0512C200.081 26.5649 202.118 28.3531 204.915 28.3531C207.713 28.3531 209.163 27.069 209.939 24.9121H215.127C213.738 29.6801 210.021 32 204.876 32C198.137 32 194.052 27.1092 194.052 20.31C194.052 13.5107 198.258 8.66268 204.876 8.66268C211.494 8.66268 215.618 13.2222 215.618 20.1845ZM210.221 17.0194C209.623 14.1452 207.644 12.3118 204.873 12.3118C202.103 12.3118 200.277 13.8242 199.508 16.9943C199.355 17.6263 199.827 18.2383 200.469 18.2383H209.255C209.885 18.2383 210.352 17.6464 210.221 17.0194ZM229.097 8.66524C226.759 8.66524 225.041 9.54304 223.828 10.8548C223.21 11.5219 222.11 11.093 222.11 10.1776V9.16185H217.047V31.5033H222.152V18.5293C222.152 14.2607 223.909 12.3545 226.808 12.3545C229.707 12.3545 231.464 14.2181 231.464 18.4466V31.5033H236.57V17.4534C236.57 12.4775 234.16 8.66524 229.097 8.66524ZM246.173 27.6509L246.176 27.6484C244.297 27.6484 243.193 27.0264 243.193 24.872V13.9797C243.193 13.4254 243.635 12.9765 244.181 12.9765H248.419V9.16428H244.181C243.635 9.16428 243.193 8.71533 243.193 8.16107V3.85981H238.087V25.1229C238.087 29.4744 241.233 31.5056 245.315 31.5056H248.501V27.6509H246.173Z" fill="#ffda34"/>
</svg>
